# Blender 5.2.2 LTS
# Contentious Effect / reminder token
o Circle
v -0.500000 0.000000 -0.866025
v -1.000000 0.000000 0.000000
v -0.500000 0.000000 0.866025
v 0.500000 0.000000 0.866025
v 1.000000 0.000000 0.000000
v 0.500000 0.000000 -0.866025
v -0.500000 0.121220 -0.866025
v -1.000000 0.121220 0.000000
v -0.500000 0.121220 0.866025
v 0.500000 0.121220 0.866025
v 1.000000 0.121220 0.000000
v 0.500000 0.121220 -0.866025
v -1.040661 0.010086 0.000000
v -0.520330 0.010086 -0.901239
v -0.520330 0.010086 0.901239
v 0.520330 0.010086 0.901239
v 1.040661 0.010086 0.000000
v 0.520330 0.010086 -0.901239
v -1.040661 0.111134 0.000000
v -0.520330 0.111134 -0.901239
v -0.520330 0.111134 0.901239
v 0.520330 0.111134 0.901239
v 1.040661 0.111134 0.000000
v 0.520330 0.111134 -0.901239
vn -0.0000 -1.0000 -0.0000
vn -0.0000 1.0000 -0.0000
vn -0.2385 -0.9613 0.1377
vn -0.0000 0.9613 -0.2754
vn 0.2385 -0.9613 -0.1377
vn -0.2385 0.9613 0.1377
vn -0.2385 -0.9613 -0.1377
vn 0.2385 0.9613 -0.1377
vn 0.8660 -0.0000 -0.5000
vn -0.0000 -0.0000 1.0000
vn -0.8660 -0.0000 -0.5000
vn -0.0000 -0.0000 -1.0000
vn 0.8660 -0.0000 0.5000
vn -0.8660 -0.0000 0.5000
vn -0.0000 0.9613 0.2754
vn -0.0000 -0.9613 -0.2754
vn -0.0000 -0.9613 0.2754
vn 0.2385 0.9613 0.1377
vn -0.2385 0.9613 -0.1377
vn 0.2385 -0.9613 0.1377
vt 0.007248 0.002646
vt 0.006591 0.002857
vt 0.007248 0.003068
vt 0.373971 0.569924
vt 0.866058 0.772857
vt 0.373971 0.975790
vt 0.007409 0.002857
vt 0.005996 0.002852
vt 0.006004 0.002852
vt 0.006752 0.002646
vt 0.006007 0.002857
vt 0.006004 0.002862
vt 0.005992 0.002857
vt 0.006752 0.003068
vt 0.005996 0.002862
vt 0.209943 0.772857
vt 0.702029 0.569924
vt 0.702029 0.975790
s 0
usemtl Material
f 1/1/1 5/2/1 3/3/1
f 9/4/2 11/5/2 7/6/2
f 3/3/3 13/7/3 2/7/3
f 12/8/4 20/9/4 7/9/4
f 6/10/5 17/2/5 5/2/5
f 8/11/6 21/12/6 9/12/6
f 2/7/7 14/1/7 1/1/7
f 11/13/8 24/8/8 12/8/8
f 18/10/9 23/2/9 17/2/9
f 16/14/10 21/3/10 15/3/10
f 13/7/11 20/1/11 14/1/11
f 14/1/12 24/10/12 18/10/12
f 17/2/13 22/14/13 16/14/13
f 15/3/14 19/7/14 13/7/14
f 9/12/15 22/15/15 10/15/15
f 6/10/16 14/1/16 18/10/16
f 3/3/17 16/14/17 15/3/17
f 10/15/18 23/13/18 11/13/18
f 7/9/19 19/11/19 8/11/19
f 5/2/20 16/14/20 4/14/20
f 3/3/1 2/7/1 1/1/1
f 1/1/1 6/10/1 5/2/1
f 5/2/1 4/14/1 3/3/1
f 7/6/2 8/16/2 9/4/2
f 9/4/2 10/17/2 11/5/2
f 11/5/2 12/18/2 7/6/2
f 3/3/3 15/3/3 13/7/3
f 12/8/4 24/8/4 20/9/4
f 6/10/5 18/10/5 17/2/5
f 8/11/6 19/11/6 21/12/6
f 2/7/7 13/7/7 14/1/7
f 11/13/8 23/13/8 24/8/8
f 18/10/9 24/10/9 23/2/9
f 16/14/10 22/14/10 21/3/10
f 13/7/11 19/7/11 20/1/11
f 14/1/12 20/1/12 24/10/12
f 17/2/13 23/2/13 22/14/13
f 15/3/14 21/3/14 19/7/14
f 9/12/15 21/12/15 22/15/15
f 6/10/16 1/1/16 14/1/16
f 3/3/17 4/14/17 16/14/17
f 10/15/18 22/15/18 23/13/18
f 7/9/19 20/9/19 19/11/19
f 5/2/20 17/2/20 16/14/20
